<svg id="Layer_1" data-name="Layer 1" xmlns="http://www.w3.org/2000/svg" viewBox="0 0 302.61 343.63"><defs><style>.cls-1{fill:#fff;}</style></defs><title>speedometer</title><path class="cls-1" d="M216.58,167.87,211,162.28,182.59,187a13.5,13.5,0,0,0-4.57-.81,14.27,14.27,0,1,0,13.88,14.26,14.6,14.6,0,0,0-.64-4.29Z" transform="translate(-28.69 -8.18)"/><path class="cls-1" d="M207.46,51.73V26.85h9V8.18h-74V26.85h9V51.94a151.34,151.34,0,1,0,56.06-.2ZM180,122.82h0Zm4.13,155.42v-8.69h-8.8v8.65a77.76,77.76,0,0,1-73-73.53h8.7v-8.8H102.4A77.76,77.76,0,0,1,175.35,123v8.65h8.8v-8.69a77.77,77.77,0,0,1,73.5,73.23h-8.74V205h8.74A77.77,77.77,0,0,1,184.15,278.25Z" transform="translate(-28.69 -8.18)"/></svg>